<svg xmlns="http://www.w3.org/2000/svg" width="30" height="30" viewBox="0 0 30 30" fill="none">
  <g clip-path="url(#clip0_1_114)">
    <path d="M27.1875 0.703111H2.8125C2.25945 0.697483 1.72675 0.911481 1.33129 1.29815C0.935838 1.68482 0.709925 2.21257 0.703125 2.76561V27.239C0.711154 27.7913 0.937608 28.3178 1.33293 28.7035C1.72825 29.0891 2.26025 29.3025 2.8125 29.2969H27.1875C27.7406 29.3012 28.2729 29.0865 28.6682 28.6996C29.0634 28.3127 29.2895 27.7851 29.2969 27.232V2.75858C29.287 2.20716 29.0599 1.68192 28.6649 1.29703C28.2699 0.912137 27.739 0.6987 27.1875 0.703111Z" fill="#0076B2"/>
    <path d="M4.93589 11.4211H9.18042V25.0781H4.93589V11.4211ZM7.05933 4.62421C7.54615 4.62421 8.02204 4.7686 8.42679 5.03911C8.83154 5.30963 9.14697 5.69411 9.33316 6.14393C9.51935 6.59374 9.56795 7.08867 9.47281 7.56611C9.37766 8.04355 9.14304 8.48204 8.79864 8.82612C8.45424 9.17019 8.01552 9.40439 7.53799 9.49908C7.06046 9.59377 6.56558 9.5447 6.11594 9.35808C5.66631 9.17146 5.28212 8.85567 5.01199 8.45066C4.74186 8.04565 4.59793 7.56963 4.59839 7.0828C4.59901 6.43053 4.85856 5.80518 5.32001 5.34417C5.78146 4.88316 6.40705 4.62421 7.05933 4.62421ZM11.8429 11.4211H15.9117V13.2961H15.9679C16.5351 12.2226 17.9179 11.0906 19.9828 11.0906C24.2812 11.0812 25.0781 13.9101 25.0781 17.5781V25.0781H20.8335V18.4336C20.8335 16.8516 20.8054 14.8148 18.6281 14.8148C16.4507 14.8148 16.0804 16.5398 16.0804 18.3305V25.0781H11.8429V11.4211Z" fill="white"/>
  </g>
  <defs>
    <clipPath id="clip0_1_114">
      <rect width="30" height="30" fill="white"/>
    </clipPath>
  </defs>
</svg>